<svg width="60" height="60" viewBox="0 0 60 60" fill="none" xmlns="http://www.w3.org/2000/svg">
<path d="M25.6237 43.1247C25.6237 41.9644 26.0846 40.8516 26.9051 40.0311C27.7256 39.2106 28.8384 38.7497 29.9987 38.7497C31.159 38.7497 32.2718 39.2106 33.0923 40.0311C33.9128 40.8516 34.3737 41.9644 34.3737 43.1247C34.3737 44.285 33.9128 45.3978 33.0923 46.2183C32.2718 47.0387 31.159 47.4997 29.9987 47.4997C28.8384 47.4997 27.7256 47.0387 26.9051 46.2183C26.0846 45.3978 25.6237 44.285 25.6237 43.1247ZM27.1287 14.8913C27.2505 14.2189 27.6045 13.6105 28.129 13.1724C28.6536 12.7343 29.3153 12.4943 29.9987 12.4943C30.6821 12.4943 31.3438 12.7343 31.8684 13.1724C32.3929 13.6105 32.7469 14.2189 32.8687 14.8913L32.9154 15.4163V29.9997L32.8687 30.5247C32.7469 31.1972 32.3929 31.8055 31.8684 32.2436C31.3438 32.6817 30.6821 32.9217 29.9987 32.9217C29.3153 32.9217 28.6536 32.6817 28.129 32.2436C27.6045 31.8055 27.2505 31.1972 27.1287 30.5247L27.082 29.9997V15.4163L27.1287 14.8913ZM59.1654 29.9997C59.1654 37.7352 56.0925 45.1538 50.6226 50.6236C45.1528 56.0934 37.7342 59.1663 29.9987 59.1663C22.2632 59.1663 14.8446 56.0934 9.37475 50.6236C3.90494 45.1538 0.832031 37.7352 0.832031 29.9997C0.832031 22.2642 3.90494 14.8455 9.37475 9.37573C14.8446 3.90592 22.2632 0.833008 29.9987 0.833008C37.7342 0.833008 45.1528 3.90592 50.6226 9.37573C56.0925 14.8455 59.1654 22.2642 59.1654 29.9997ZM53.332 29.9997C53.332 23.8113 50.8737 17.8764 46.4979 13.5005C42.122 9.12467 36.1871 6.66634 29.9987 6.66634C23.8103 6.66634 17.8754 9.12467 13.4995 13.5005C9.12369 17.8764 6.66536 23.8113 6.66536 29.9997C6.66536 36.1881 9.12369 42.123 13.4995 46.4988C17.8754 50.8747 23.8103 53.333 29.9987 53.333C36.1871 53.333 42.122 50.8747 46.4979 46.4988C50.8737 42.123 53.332 36.1881 53.332 29.9997Z" fill="#EB3939"/>
</svg>
