<svg width="60" height="67" viewBox="0 0 60 67" fill="none" xmlns="http://www.w3.org/2000/svg">
<path d="M0.865234 0H31.7655V10.3964H11.2616L0.865234 0Z" fill="white"/>
<path d="M21.3711 6.93066H31.7674V20.5037L26.8581 25.9907L21.3711 20.5037V6.93066Z" fill="white"/>
<path d="M5.19817 27.7236H15.0169L19.9263 33.2106L15.0169 38.6976H5.19817L0 32.9218L5.19817 27.7236Z" fill="white"/>
<path d="M32.3438 59.4902H21.9474V45.9172L27.1456 40.4302L32.3438 45.9172V59.4902Z" fill="white"/>
<path d="M12.4173 55.7361L41.8736 55.4473L52.8475 66.71H1.44336L12.4173 55.7361Z" fill="white"/>
<path d="M52.5586 27.7236V37.5424H38.9856L33.4986 32.633L38.9856 27.7236H52.5586Z" fill="white"/>
<path d="M48.5156 17.327L59.4895 6.93066V58.0461L48.5156 47.361V17.327Z" fill="white"/>
</svg>
