<svg width="22" height="23" viewBox="0 0 22 23" fill="none" xmlns="http://www.w3.org/2000/svg">
<path d="M4.08126 3.41807L4.18853 3.79851L4.58346 3.78195L4.69798 3.77714H20.31C20.9869 3.77714 21.5368 4.47404 21.33 5.23406L21.33 5.23411L19.045 13.6354L19.045 13.6354C18.8674 14.2888 18.4927 14.8594 17.9825 15.2633C17.4728 15.6668 16.8549 15.8829 16.2225 15.8831C16.2225 15.8831 16.2224 15.8831 16.2224 15.8831H8.7875C8.15006 15.8831 7.52741 15.6638 7.0154 15.2544C6.50298 14.8447 6.12916 14.2665 5.95624 13.6061C5.95623 13.606 5.95621 13.606 5.9562 13.6059L5.00624 9.97237L5.00634 9.97235L5.00363 9.96276L3.43933 4.43209L3.43865 4.42636L3.42988 4.39295C3.4263 4.37928 3.42271 4.36561 3.41912 4.35192C3.23249 3.64035 3.03821 2.89963 2.73962 2.33029C2.59345 2.04816 2.43611 1.82969 2.24853 1.68188C2.04124 1.51853 1.82897 1.46629 1.63625 1.46629H0.9375C0.829344 1.46629 0.72052 1.42145 0.63644 1.33328C0.55159 1.24429 0.5 1.11875 0.5 0.983143C0.5 0.847539 0.55159 0.721991 0.63644 0.63301C0.72052 0.544836 0.829344 0.5 0.9375 0.5H1.635C2.54144 0.5 3.12279 1.1285 3.49796 1.84757L3.4981 1.84785C3.74495 2.32024 3.93011 2.88197 4.08126 3.41807ZM9.53091 21.8271C9.15381 22.2225 8.64756 22.44 8.125 22.44C7.60244 22.44 7.09619 22.2225 6.71909 21.8271C6.34121 21.4308 6.125 20.8885 6.125 20.3183C6.125 19.7481 6.34121 19.2058 6.71909 18.8095C7.09619 18.414 7.60244 18.1966 8.125 18.1966C8.64756 18.1966 9.15381 18.414 9.53091 18.8095C9.90879 19.2058 10.125 19.7481 10.125 20.3183C10.125 20.8885 9.90879 21.4308 9.53091 21.8271ZM18.2809 21.8271C17.9038 22.2225 17.3976 22.44 16.875 22.44C16.3524 22.44 15.8462 22.2225 15.4691 21.8271C15.0912 21.4308 14.875 20.8885 14.875 20.3183C14.875 19.7481 15.0912 19.2058 15.4691 18.8095C15.8462 18.414 16.3524 18.1966 16.875 18.1966C17.3976 18.1966 17.9038 18.414 18.2809 18.8095C18.6588 19.2058 18.875 19.7481 18.875 20.3183C18.875 20.8885 18.6588 21.4308 18.2809 21.8271Z" stroke="#3A513F"/>
</svg>
