<svg width="23" height="23" viewBox="0 0 23 23" fill="none" xmlns="http://www.w3.org/2000/svg">
<path d="M3.42371 16.8992L3.05198 16.2439C2.217 14.7718 1.78272 13.1065 1.79249 11.4142C1.80226 9.72181 2.25573 8.06161 3.10764 6.59929C3.95955 5.13696 5.18011 3.92365 6.64748 3.08046C8.1148 2.2373 9.7776 1.79372 11.4699 1.794L3.42371 16.8992ZM3.42371 16.8992L3.88316 16.3021M3.42371 16.8992L3.88316 16.3021M3.88316 16.3021C4.37161 15.6673 4.9995 15.1533 5.71829 14.7999C6.43708 14.4465 7.22752 14.2632 8.02849 14.264H8.02901M3.88316 16.3021L8.02901 14.264M8.02901 13.764C7.15137 13.7631 6.28527 13.964 5.49768 14.3512C4.8705 14.6596 4.30647 15.0795 3.83247 15.5891C3.86165 15.6432 3.89143 15.697 3.9218 15.7505L8.02901 13.764ZM8.02901 13.764H14.911H8.02901ZM8.02901 14.264H14.911H14.9115M8.02901 14.264H14.9115M14.9115 14.264C15.7125 14.2632 16.5029 14.4465 17.2217 14.7999C17.9405 15.1533 18.5684 15.6673 19.0569 16.3021L19.5163 16.8992M14.9115 14.264L19.5163 16.8992M19.5163 16.8992L19.888 16.2439M19.5163 16.8992L19.888 16.2439M19.888 16.2439C20.723 14.7718 21.1573 13.1065 21.1475 11.4142M19.888 16.2439L21.1475 11.4142M21.1475 11.4142C21.1378 9.72181 20.6843 8.06161 19.8324 6.59929M21.1475 11.4142L19.8324 6.59929M19.8324 6.59929C18.9805 5.13696 17.7599 3.92365 16.2925 3.08046M19.8324 6.59929L16.2925 3.08046M16.2925 3.08046C14.8252 2.2373 13.1624 1.79372 11.4701 1.794L16.2925 3.08046ZM20.184 18.1348L20.0321 18.3327L20.0331 18.3364L19.8 18.6076L19.7994 18.6084C19.1829 19.3285 18.4756 19.9657 17.6953 20.504L17.695 20.5042C16.0638 21.6316 14.1564 22.2932 12.1775 22.418C11.9433 22.4327 11.7075 22.44 11.47 22.44H11.4696C9.88685 22.4414 8.32265 22.0996 6.88478 21.4381C5.44691 20.7767 4.16957 19.8113 3.14081 18.6085L3.14001 18.6076L2.90687 18.3364L2.90789 18.3327L2.75613 18.1349C1.28975 16.2231 0.496555 13.8801 0.500012 11.4707V11.47C0.500012 5.41126 5.41127 0.5 11.47 0.5C17.5287 0.5 22.44 5.41126 22.44 11.47V11.4707C22.4429 13.6485 21.7947 15.7774 20.5787 17.5842L20.578 17.5853C20.4525 17.7729 20.3211 17.956 20.184 18.1348ZM9.39041 5.9494C9.94195 5.39785 10.69 5.088 11.47 5.088C12.25 5.088 12.9981 5.39785 13.5496 5.9494C14.1012 6.50094 14.411 7.249 14.411 8.029C14.411 8.809 14.1012 9.55706 13.5496 10.1086C12.9981 10.6601 12.25 10.97 11.47 10.97C10.69 10.97 9.94195 10.6601 9.39041 10.1086C8.83887 9.55706 8.52901 8.809 8.52901 8.029C8.52901 7.249 8.83887 6.50094 9.39041 5.9494Z" stroke="#3A513F"/>
</svg>
