<svg width="26" height="24" viewBox="0 0 26 24" fill="none" xmlns="http://www.w3.org/2000/svg">
<path d="M11.5241 21.6678L11.5234 21.6671C8.29479 18.7394 5.65515 16.342 3.81682 14.0929C1.98398 11.8506 1 9.81687 1 7.625C1 4.03924 3.80055 1.25 7.375 1.25C9.39885 1.25 11.3496 2.19473 12.6206 3.67564L13 4.11771L13.3794 3.67564C14.6504 2.19473 16.6012 1.25 18.625 1.25C22.1995 1.25 25 4.03924 25 7.625C25 9.81687 24.016 11.8506 22.1832 14.0929C20.3448 16.342 17.7052 18.7394 14.4766 21.6671L14.4759 21.6678L13 23.0113L11.5241 21.6678Z" stroke="#3A513F"/>
</svg>
