<svg width="18" height="23" viewBox="0 0 18 23" fill="none" xmlns="http://www.w3.org/2000/svg">
<path d="M3.74931 5.4531L4.09266 5.77115L3.74931 5.4531C3.42579 5.80235 3.25 6.26839 3.25 6.74706C3.25 7.22573 3.42579 7.69177 3.74931 8.04102C4.07403 8.39156 4.52299 8.59647 5 8.59647H12.5C12.977 8.59647 13.426 8.39156 13.7507 8.04102C14.0742 7.69177 14.25 7.22573 14.25 6.74706C14.25 6.26839 14.0742 5.80235 13.7507 5.4531C13.426 5.10256 12.977 4.89765 12.5 4.89765H5C4.52299 4.89765 4.07403 5.10256 3.74931 5.4531ZM0.5 5.39765C0.5 4.11202 0.500915 3.19481 0.587725 2.49819C0.673189 1.81237 0.834361 1.41656 1.09931 1.13054C1.35923 0.849948 1.71101 0.683364 2.32873 0.593654C2.96511 0.501235 3.80601 0.5 5 0.5H12.5C13.694 0.5 14.5349 0.501235 15.1713 0.593654C15.789 0.683364 16.1408 0.849948 16.4007 1.13054C16.6656 1.41656 16.8268 1.81237 16.9123 2.49819C16.9991 3.19481 17 4.11202 17 5.39765V17.5424C17 18.828 16.9991 19.7452 16.9123 20.4418C16.8268 21.1276 16.6656 21.5234 16.4007 21.8095C16.1408 22.0901 15.789 22.2566 15.1713 22.3463C14.5349 22.4388 13.694 22.44 12.5 22.44H5C3.80601 22.44 2.96511 22.4388 2.32873 22.3463C1.71101 22.2566 1.35923 22.0901 1.09931 21.8095C0.834361 21.5234 0.673189 21.1276 0.587725 20.4418C0.500915 19.7452 0.5 18.828 0.5 17.5424V5.39765ZM5 10.2953C4.52299 10.2953 4.07403 10.5002 3.74931 10.8507C3.42579 11.2 3.25 11.666 3.25 12.1447C3.25 12.6234 3.42579 13.0894 3.74931 13.4387C4.07403 13.7892 4.52299 13.9941 5 13.9941H12.5C12.977 13.9941 13.426 13.7892 13.7507 13.4387C14.0742 13.0894 14.25 12.6234 14.25 12.1447C14.25 11.666 14.0742 11.2 13.7507 10.8507C13.426 10.5002 12.977 10.2953 12.5 10.2953H5ZM5 15.6929C4.52299 15.6929 4.07403 15.8979 3.74931 16.2484C3.42579 16.5976 3.25 17.0637 3.25 17.5424C3.25 18.021 3.42579 18.4871 3.74931 18.8363C4.07403 19.1869 4.52299 19.3918 5 19.3918H10C10.477 19.3918 10.926 19.1869 11.2507 18.8363C11.5742 18.4871 11.75 18.021 11.75 17.5424C11.75 17.0637 11.5742 16.5976 11.2507 16.2484C10.926 15.8979 10.477 15.6929 10 15.6929H5Z" stroke="#3A513F"/>
</svg>
