<svg width="80" height="87" viewBox="0 0 80 87" fill="none" xmlns="http://www.w3.org/2000/svg">
<path d="M10.8652 0H41.7655V10.3964H21.2616L10.8652 0Z" fill="white"/>
<path d="M31.3711 6.93066H41.7674V20.5037L36.8581 25.9907L31.3711 20.5037V6.93066Z" fill="white"/>
<path d="M5.19817 37.7236H15.0169L19.9263 43.2106L15.0169 48.6976H5.19817L0 42.9218L5.19817 37.7236Z" fill="white"/>
<path d="M42.3438 79.4902H31.9474V65.9172L37.1456 60.4302L42.3438 65.9172V79.4902Z" fill="white"/>
<path d="M22.4173 75.7361L51.8736 75.4473L62.8475 86.71H11.4434L22.4173 75.7361Z" fill="white"/>
<path d="M72.5586 37.7236V47.5424H58.9856L53.4986 42.633L58.9856 37.7236H72.5586Z" fill="white"/>
<path d="M68.5156 27.327L79.4895 16.9307V68.0461L68.5156 57.361V27.327Z" fill="white"/>
</svg>
